<?xml version="1.0" standalone="no"?>
<!DOCTYPE svg PUBLIC "-//W3C//DTD SVG 20010904//EN"
 "http://www.w3.org/TR/2001/REC-SVG-20010904/DTD/svg10.dtd">
<svg version="1.0" xmlns="http://www.w3.org/2000/svg"
 width="700.000000pt" height="700.000000pt" viewBox="0 0 700.000000 700.000000"
 preserveAspectRatio="xMidYMid meet">
<metadata>
Created by potrace 1.14, written by Peter Selinger 2001-2017
</metadata>
<g transform="translate(0.000000,700.000000) scale(0.100000,-0.100000)"
fill="#000000" stroke="none">
<path d="M5020 6989 c-28 -7 -239 -48 -380 -75 -14 -2 -95 -18 -180 -35 -85
-17 -166 -33 -180 -35 -14 -3 -47 -9 -75 -14 -27 -6 -59 -12 -70 -14 -11 -2
-103 -20 -205 -40 -102 -20 -196 -39 -210 -41 -14 -3 -72 -15 -130 -25 -58
-11 -112 -22 -120 -25 -8 -2 -33 -7 -55 -11 -22 -3 -94 -17 -160 -30 -66 -14
-136 -27 -155 -30 -19 -3 -43 -7 -52 -10 -10 -3 -30 -7 -45 -10 -16 -2 -39 -7
-53 -10 -14 -3 -36 -8 -50 -10 -131 -23 -285 -57 -301 -67 -28 -17 -34 -47
-43 -212 -10 -173 -19 -332 -21 -365 -2 -19 -3 -52 -4 -73 l-1 -39 -42 7 c-24
3 -65 10 -93 16 -126 24 -334 60 -370 65 -22 3 -47 7 -55 9 -12 4 -313 58
-440 80 -55 9 -425 75 -451 80 -13 3 -64 12 -114 21 -125 21 -127 21 -155 28
-14 3 -38 7 -55 10 -46 6 -105 16 -155 26 -25 5 -58 12 -75 14 -16 3 -57 10
-90 16 -33 6 -76 13 -95 16 -19 3 -52 9 -73 14 -69 15 -149 7 -184 -18 -50
-35 -75 -77 -78 -132 -4 -49 20 -109 91 -230 38 -66 143 -248 172 -300 14 -25
56 -99 95 -165 38 -66 80 -138 92 -160 12 -22 82 -146 157 -275 74 -129 150
-261 167 -294 18 -32 47 -82 63 -110 17 -28 38 -64 48 -81 9 -16 45 -79 80
-140 34 -60 72 -126 83 -145 10 -19 54 -96 97 -170 43 -74 87 -151 98 -171 11
-19 107 -188 214 -375 107 -186 207 -361 222 -389 16 -27 31 -54 36 -60 4 -5
21 -35 37 -65 24 -43 717 -1254 794 -1388 11 -17 29 -49 40 -70 12 -20 38 -66
59 -102 21 -36 48 -83 60 -105 19 -35 304 -532 592 -1035 49 -85 103 -167 121
-182 36 -30 98 -44 152 -34 67 13 101 58 246 322 10 17 99 176 198 352 99 177
232 412 294 524 63 112 127 226 143 253 15 28 40 71 54 96 30 57 73 133 220
394 62 110 125 223 140 250 15 28 43 77 62 110 19 33 37 67 41 75 4 8 15 29
25 45 10 17 32 55 49 85 17 30 70 125 118 210 48 85 100 178 115 205 15 28 63
113 107 190 43 77 82 147 86 155 4 8 17 31 28 50 23 38 144 253 191 340 17 30
60 107 96 170 36 63 79 140 96 171 32 57 360 642 376 669 11 19 80 142 112
200 14 25 74 133 135 240 60 107 122 218 138 245 83 150 157 280 208 370 46
82 91 164 121 220 56 108 -5 243 -118 262 -31 5 -135 -7 -211 -24 -11 -2 -31
-6 -45 -9 -42 -8 -194 -36 -218 -40 -12 -2 -49 -9 -82 -14 -33 -6 -72 -13 -87
-16 -31 -5 -332 -60 -378 -68 -16 -4 -181 -33 -365 -66 -184 -33 -355 -65
-380 -70 -25 -5 -74 -14 -110 -20 -36 -6 -73 -13 -82 -16 -15 -4 -16 -1 -8 23
12 38 181 620 190 658 5 17 27 93 49 170 51 174 53 181 39 211 -22 47 -73 62
-148 43z"/>
</g>
</svg>
